<?xml version="1.0" encoding="utf-8"?>
<!-- Generator: Adobe Illustrator 22.0.1, SVG Export Plug-In . SVG Version: 6.00 Build 0)  -->
<svg version="1.1" id="Camada_1" xmlns="http://www.w3.org/2000/svg" xmlns:xlink="http://www.w3.org/1999/xlink" x="0px" y="0px"
	 viewBox="0 0 788.4 691.9" style="enable-background:new 0 0 788.4 691.9;" xml:space="preserve">
<style type="text/css">
	.st0{fill:#3D3D3F;}
	.st1{fill:#32D87D;}
	.st2{fill:#58585A;}
	.st3{fill:#868789;}
	.st4{clip-path:url(#SVGID_2_);}
	.st5{fill:#E4B595;}
	.st6{fill:#E9BC9A;}
	.st7{fill:#ECE4D9;}
	.st8{fill:#EEC7AA;}
	.st9{fill:#FAF9F8;}
	.st10{fill:#4C7083;}
	.st11{fill:#FFFFFF;}
</style>
<g>
	<g>
		<g>
			<g>
				<g>
					<path class="st0" d="M668.3,0c17.1,0,31,14,31,31v476c0,17-13.9,31-31,31H31c-17.1,0-31-14-31-31V31C0,13.9,14,0,31,0H668.3z"
						/>
				</g>
				<g>
					<rect x="59.5" y="52.2" class="st1" width="580.3" height="433.7"/>
				</g>
				<g>
					<path class="st2" d="M31.9,262.1c3.9,0,6.8,3.1,6.8,7c0,3.9-3.1,7-6.8,7c-3.9,0-6.8-3.1-6.8-7C25,265.2,28.1,262.1,31.9,262.1z
						"/>
				</g>
				<g>
					<path class="st3" d="M667.4,257c6.6,0,12.1,5.3,12.1,12.1c0,6.6-5.5,12.1-12.1,12.1c-6.6,0-12.1-5.5-12.1-12.1
						C655.3,262.4,660.7,257,667.4,257z"/>
				</g>
			</g>
		</g>
	</g>
</g>
<g>
	<defs>
		
			<rect id="SVGID_1_" x="441.1" y="204.9" transform="matrix(0.88 -0.475 0.475 0.88 -133.3006 354.0951)" width="385.9" height="471.9"/>
	</defs>
	<clipPath id="SVGID_2_">
		<use xlink:href="#SVGID_1_"  style="overflow:visible;"/>
	</clipPath>
	<g class="st4">
		<path class="st5" d="M655.8,398L655.8,398c-2.7,2.3-6.7,1.9-8.9-0.8l-30.3-37.3c-2.2-2.7-1.9-6.7,0.8-8.9l0.1,0
			c2.7-2.2,6.6-1.9,8.9,0.9l30.4,37.2C658.8,391.8,658.4,395.8,655.8,398z"/>
		<path class="st5" d="M620.6,439.1L620.6,439.1c-2.7,2.3-6.7,1.9-8.9-0.8l-41.8-51.3c-2.2-2.7-1.9-6.7,0.8-8.9l0.1,0
			c2.7-2.2,6.6-1.9,8.9,0.9l41.8,51.3C623.6,432.9,623.2,436.8,620.6,439.1z"/>
		<path class="st5" d="M694,360.1L694,360.1c-2.7,2.3-6.7,1.9-8.9-0.8l-19-23.3c-2.2-2.7-1.9-6.7,0.8-8.9l0.1,0
			c2.7-2.2,6.6-1.9,8.9,0.9l19,23.3C697,353.9,696.7,357.9,694,360.1z"/>
		<g>
			<path class="st6" d="M691.9,544.6l-0.2,0.4c-5.1,12.2-19.6,17.3-32.4,11.5L520,493.6c-20.4-10.2-18.1-21-13-33.1l0.2-0.4
				c7.7-13.9,34.6-10.1,48.8-3.4l121.8,55.5C690.6,517.9,696.9,532.5,691.9,544.6z"/>
			<path class="st7" d="M502.9,471.3c-0.8,1.7-1.2,3.6-1.1,5.5c0.3,3.3,2,8.1,7.8,11.3c9.6,5.2,24.6,13,26.6,12.7
				c2.1-0.4,5.6-4.1,5.6-10.6s-0.6-8-4.9-11.5c-4.4-3.4-23.1-10.7-25-11.1C510.2,467.4,505.5,466.2,502.9,471.3z"/>
		</g>
		<polygon class="st5" points="641.9,548.8 566.4,461.4 577.3,466.4 658.5,556.2 		"/>
		<g>
			<path class="st8" d="M739.9,336.2c0-0.1-0.2-0.1-0.2-0.3L707,296c-8.6-10.5-23.8-12-34.2-3.3l-0.4,0.3
				c-10.3,8.6-11.7,24.1-3.1,34.6l19.3,23.7c-1.1,0.7-2.2,1.4-3.3,2.1l-31-37.9c-8.6-10.5-23.8-12-34.2-3.3l-0.4,0.3
				c-10.3,8.6-11.7,24.1-3.1,34.6l29,35.4c-0.3,0.3-0.7,0.6-1,0.8l-1.6,1.4c-0.1,0.1-0.2,0.2-0.3,0.3l-39.2-48
				c-8.6-10.5-23.8-12-34.2-3.3l-0.4,0.3c-10.3,8.6-11.7,24.1-3.1,34.6l41.1,50.3c-1,1.1-2,2.2-3,3.3l-94.8-116
				c-10.3-12.6-26.9-15.8-37.2-7.3l-0.4,0.3c-10.3,8.6-10.2,25.7,0.1,38.4l104.9,128.4c1,1.2,1.8,2.6,2.6,4c0.1,0.2,0.4,0.5,0.5,0.7
				l57.7,70.6c13.6,16.6,35.1,23.1,54.2,17.1l96.2,103.9V394.9L739.9,336.2z"/>
			<path class="st7" d="M499.6,331.5l-0.3,0.2c-7.5,6.3-15.8,8.8-23.4-0.5l-6.6-8.1c-7.7-9.4-4.6-18.2,2.9-24.6l0.3-0.2
				c7.5-6.3,16.7-7.7,24.3,1.7l6.6,8.1C511.1,317.5,507.1,325.3,499.6,331.5z"/>
		</g>
		<g>
			<path class="st9" d="M787.8,587.6L739.6,626c-1.1,0.8-2.5,0.8-3.2,0l-27.1-29.6c-0.7-0.8-0.5-2,0.6-2.8l77.8-79.4L787.8,587.6z"
				/>
		</g>
		<path class="st10" d="M787.7,672.2l-13.5,11.2c-1.5,1.2-3.6,1-4.9-0.5l-43.6-53.6c-1.2-1.5-1.1-3.8,0.4-5l61.6-51.3V672.2z"/>
	</g>
</g>
<g id="Camada_2_1_">
	<g id="Camada_1-2">
		<path class="st11" d="M349.2,200.2l73.4,137.7H276.9L349.2,200.2z M324.6,262.6c7.3,5.3,13.5,10.2,20,14.7
			c16.5,11.4,17.8,11.2,35.3-3.6l-30.6-57.6L324.6,262.6z M301.6,327.1l0.6,2.4h99.5c-13.2-11.9-27-21.7-40.9-31.2
			c-1.5-1-4.2-1-5.8-0.2C337.2,307.7,319.3,317.5,301.6,327.1L301.6,327.1z M295.1,318.3l1.9,2.4l53.6-29.5l-30-21.2L295.1,318.3z
			 M399.1,315.6l2.1-1.9L384.4,282L366,292.1L399.1,315.6z"/>
	</g>
</g>
<path class="st10" d="M787.7,672.2v33.5l-62-76.4c-1.2-1.5-1.1-3.8,0.4-5l61.6-58.5V672.2z"/>
</svg>
