<svg xmlns="http://www.w3.org/2000/svg" viewBox="0 0 198.62 187.69"><defs><style>.cls-1{fill:#32d87d;}</style></defs><title>Ativo 3</title><g id="Camada_2" data-name="Camada 2"><g id="Camada_1-2" data-name="Camada 1"><path class="cls-1" d="M98.64,0l100,187.69H0ZM65.15,85.09C75,92.31,83.59,98.9,92.43,105c22.48,15.6,24.16,15.38,48.16-4.9L98.78,21.64Zm-31.4,88,.83,3.26H170.16c-17.94-16.26-36.71-29.64-55.69-42.62-2-1.35-5.67-1.37-7.83-.22C82.26,146.54,58,159.87,33.75,173.12Zm-8.67-12.07,2.6,3.21L100.79,124,60,95.12Zm141.72-3.73,2.93-2.59-23.09-43.11L121.5,125.49Z"/></g></g></svg>