<svg width="377" height="101" viewBox="0 0 377 101" fill="none" xmlns="http://www.w3.org/2000/svg">
<path d="M3.60047e-06 42.733V1.14928e-06H6.54253V37.7995H29.4843V42.7276L3.60047e-06 42.733Z" transform="translate(127.477 58.2434)" fill="white"/>
<path d="M5.89167e-06 42.733V1.14928e-06H28.7818V4.92804H6.54253V17.883H25.3979V22.811H6.54253V37.7995H30.3102V42.7276L5.89167e-06 42.733Z" transform="translate(168.245 58.2434)" fill="white"/>
<path d="M1.30926e-06 42.733L16.6513 21.041L1.42649 1.14928e-06H9.18099L20.6787 15.8601L32.8896 0.00537815H39.2659L23.7515 20.1103L40.1293 42.7383H32.348L19.7617 25.3396L6.35484 42.7383L1.30926e-06 42.733Z" transform="translate(202.411 58.2434)" fill="white"/>
<path d="M28.1192 10.4283C27.871 9.33266 27.408 8.29753 26.757 7.38322C26.0766 6.42313 25.2345 5.58932 24.2687 4.9192C23.2159 4.19328 22.0559 3.63775 20.8312 3.27294C19.4799 2.86583 18.0753 2.66453 16.6644 2.67576C14.7069 2.64933 12.7627 2.99998 10.937 3.70871C9.26109 4.36949 7.76118 5.41192 6.55561 6.75377C5.28317 8.21468 4.33287 9.92889 3.767 11.784C3.07733 14.0495 2.74617 16.4095 2.78561 18.778C2.74641 21.1623 3.07751 23.5382 3.767 25.8203C4.33549 27.6986 5.28489 29.4386 6.55561 30.9313C7.74587 32.2968 9.23423 33.3683 10.9048 34.0624C12.7019 34.7969 14.6275 35.1628 16.5678 35.1384C19.7104 35.1384 22.3006 34.4336 24.3384 33.0241C25.3572 32.3093 26.2188 31.3923 26.8701 30.33C27.5213 29.2676 27.9483 28.0825 28.1245 26.8479H30.8971C30.6691 28.488 30.1225 30.0673 29.2882 31.4962C28.4922 32.8365 27.4429 34.0079 26.1993 34.9447C24.9075 35.9112 23.4549 36.6398 21.9091 37.0967C20.206 37.5969 18.4389 37.8434 16.6644 37.8284C14.2881 37.8662 11.9301 37.4063 9.74108 36.478C7.73798 35.6109 5.95203 34.3081 4.51241 32.6636C3.0043 30.9156 1.86585 28.8784 1.16608 26.6757C0.359797 24.1299 -0.0331144 21.4705 0.00237174 18.7995C-0.0344269 16.1548 0.358619 13.5218 1.16608 11.0039C1.86504 8.82416 3.00008 6.81043 4.50169 5.08598C5.94879 3.45473 7.74061 2.16812 9.74645 1.32002C11.9303 0.415183 14.2751 -0.0333218 16.6376 0.00192662C18.3331 -0.00712201 20.0196 0.25066 21.6356 0.765879C23.1714 1.24795 24.6199 1.97454 25.9258 2.91786C27.1707 3.82296 28.2487 4.939 29.1113 6.21577C29.9712 7.49155 30.5776 8.9219 30.8971 10.4283H28.1192Z" transform="translate(255.473 63.1695)" fill="white"/>
<path d="M17.163 0.000804567C19.5189 -0.0217939 21.8553 0.431977 24.0326 1.33503C26.0965 2.19844 27.9498 3.49968 29.4651 5.14942C31.0261 6.86778 32.2326 8.87906 33.0152 11.0674C33.895 13.546 34.3272 16.1621 34.2915 18.793C34.3234 21.4222 33.8969 24.0367 33.0313 26.5186C32.2575 28.7348 31.0567 30.7767 29.4973 32.528C27.9903 34.1977 26.1456 35.5256 24.0863 36.4231C19.6481 38.2664 14.6618 38.2664 10.2236 36.4231C8.16098 35.5306 6.31107 34.2084 4.79652 32.5441C3.23467 30.8008 2.03345 28.7636 1.2625 26.5509C0.395046 24.0583 -0.0314724 21.4329 0.00224114 18.793C-0.0353014 16.1515 0.396907 13.5244 1.27857 11.0351C2.05757 8.84147 3.27062 6.82849 4.8448 5.11714C6.36963 3.49282 8.21894 2.20954 10.2719 1.35117C12.4544 0.438744 14.7986 -0.0206199 17.163 0.000804567ZM17.1308 35.1373C19.1023 35.1598 21.0591 34.7942 22.8904 34.0613C24.6282 33.3548 26.1872 32.2686 27.4541 30.8817C28.7908 29.391 29.8076 27.6403 30.4411 25.7385C31.1854 23.5003 31.548 21.1522 31.5137 18.793C31.5583 16.4383 31.1954 14.0938 30.4411 11.8636C29.7993 9.99451 28.7827 8.2771 27.4541 6.81721C26.1963 5.4615 24.654 4.40304 22.9387 3.71835C21.127 2.99536 19.1932 2.63001 17.2434 2.64236C15.2618 2.62321 13.2951 2.98857 11.4517 3.71835C9.7217 4.40937 8.16385 5.47269 6.888 6.83335C5.55034 8.28939 4.5278 10.0076 3.88485 11.8797C3.13258 14.0974 2.76968 16.4293 2.81231 18.7715C2.77801 21.1307 3.14061 23.4788 3.88485 25.717C4.51662 27.6161 5.52752 29.3661 6.85583 30.8602C8.11456 32.2491 9.66885 33.3358 11.4034 34.0398C13.2232 34.7759 15.1687 35.1487 17.1308 35.1373Z" transform="translate(292.658 63.176)" fill="white"/>
<path d="M2.68137 36.4707H0V8.20916e-07H2.68137V36.4707Z" transform="translate(335.707 64.5056)" fill="white"/>
<path d="M28.342 36.4707H24.8563L2.68138 3.16341V36.4707H1.30926e-05V8.20916e-07H3.67347L25.6607 33.2373V8.20916e-07H28.342V36.4707Z" transform="translate(348.658 64.5056)" fill="white"/>
<path d="M52.898 0L106.525 100.976H0L52.898 0ZM34.9382 45.778C40.2205 49.6623 44.8271 53.2077 49.5677 56.4895C61.6231 64.8822 62.5241 64.7639 75.3946 53.8533L52.9731 11.6422L34.9382 45.778ZM18.0992 93.1216L18.5443 94.8755H91.2522C81.6315 86.1277 71.5657 78.9293 61.3872 71.9461C60.3146 71.2198 58.3465 71.209 57.1882 71.8277C44.1138 78.8378 31.1038 86.0093 18.0992 93.1377V93.1216ZM13.4497 86.628L14.844 88.355L54.051 66.7114L32.1764 51.1741L13.4497 86.628ZM89.4504 84.6213L91.0216 83.2279L78.6391 60.0349L65.1572 67.513L89.4504 84.6213Z" fill="#32D87D"/>
</svg>
